<svg width="1560" height="800" viewBox="0 0 1560 800" fill="none" xmlns="http://www.w3.org/2000/svg">
<g clip-path="url(#clip0_221_2)">
<path fill-rule="evenodd" clip-rule="evenodd" d="M359.273 567.798C360.044 569.402 391.789 604.486 365.474 659.617C335.751 721.89 246.576 747.471 188.081 656.914C49.7194 442.711 231.75 36.1695 660.971 100.251C901.645 136.183 1043.89 308.16 1101.44 364.822C1134.92 397.784 1188.31 419.748 1196.59 418.512C1199.35 415.558 1211.29 414.659 1206.34 345.214C1199 242.169 1175.86 218.273 1176.63 211.238C1193.69 55.1405 1403.72 9.09448 1497.57 138.644C1538.08 194.563 1548.89 252.8 1544.17 259.658C1467.86 370.427 1435.1 443.674 1407.36 485.05C1390.32 510.459 1321.9 618.568 1204.75 620.725C1167.29 621.414 1073.69 608.383 970.642 508.8C858.734 400.653 778.514 289.318 564.047 286.798C453.894 285.503 354.369 368.207 339.061 473.702C332.049 522.025 339.686 540.816 359.273 567.798Z" fill="#F0CC00" stroke="black" stroke-width="5" stroke-miterlimit="2" stroke-linejoin="round"/>
<path fill-rule="evenodd" clip-rule="evenodd" d="M1241.8 221.61C1244.22 214.143 1245.51 206.342 1247.92 198.875C1249.1 195.221 1250.85 191.766 1252.56 188.332C1253.38 186.708 1257.63 178.206 1264.67 169.14C1265.77 167.72 1271.56 160.266 1280.08 152.804C1288.54 145.396 1296.7 140.623 1298.25 139.719C1308.02 134 1316.92 130.875 1318.62 130.28C1329.44 126.48 1338.85 125.14 1340.65 124.884C1352.24 123.233 1361.94 123.814 1363.79 123.925C1363.8 123.926 1375.6 125.232 1375.61 125.234C1379.48 126.068 1383.4 126.708 1387.23 127.736C1389.02 128.217 1398.41 130.74 1408.88 135.977C1410.51 136.789 1419.01 141.042 1428.08 148.076C1429.49 149.177 1436.95 154.961 1444.41 163.482C1445.59 164.83 1451.82 171.942 1457.5 181.648C1463.21 191.426 1466.34 200.329 1466.93 202.024C1470.73 212.852 1472.07 222.264 1472.33 224.061C1473.98 235.655 1473.4 245.361 1473.29 247.211C1472.81 255.116 1472.65 255.101 1471.34 262.909C1470.89 265.548 1470.36 268.586 1470.36 268.596C1470.36 268.598 1468.66 273.13 1466.61 278.333C1446.23 330.221 1426.07 364.949 1422.86 371.053C1384.36 444.272 1348.12 480.039 1329.25 496.489C1326.6 498.793 1305.85 522.917 1272.27 539.934C1227.56 562.594 1188.77 558.607 1170.9 555.897C1116.15 547.594 1071.05 514.012 1039.49 484.544C1034.11 479.525 1032.77 479.25 1004.07 451.099C974.474 422.069 931.267 378.605 887.652 344.911C841.517 309.27 805.127 290.134 766.435 274.966C766.309 274.916 755.031 270.304 735.638 264.254C715.806 258.069 702.202 255.005 699.841 254.301C684.667 249.776 660.972 243.372 632.871 238.691C632.076 238.558 613.204 235.955 590.837 235.287C556.826 234.269 530.915 238.307 522.858 239.627C522.798 239.637 515.716 240.872 506.741 243.037C462.257 253.771 437.179 271.15 430.795 274.987C400.01 293.489 381.967 314.867 371.719 328.329C357.148 347.469 346.211 368.784 338.88 390.899C338.274 392.727 337.296 394.527 334.833 401.033C321.786 435.493 320.708 464.005 320.681 477.763C320.608 515.496 331.816 537.222 334.51 542.47L334.463 542.403C336.755 549.422 341.062 555.673 343.354 562.692C344.473 566.118 344.525 569.829 344.595 573.432C344.665 577.012 344.385 580.615 343.773 584.143C343.162 587.671 342.215 591.157 340.945 594.505C339.666 597.873 338.068 601.14 336.164 604.199C334.23 607.303 331.996 610.244 329.486 612.905C329.475 612.917 320.967 620.305 320.96 620.309C317.686 622.152 314.579 624.326 311.139 625.834C307.791 627.302 304.27 628.416 300.697 629.192C297.177 629.956 293.564 630.362 289.962 630.432C286.383 630.502 282.781 630.221 279.253 629.61C275.725 628.999 272.238 628.051 268.889 626.781C265.519 625.503 262.251 623.905 259.191 622.001C256.084 620.068 253.14 617.835 250.477 615.325C246.684 611.753 240.246 603.21 239.417 602.109C203.274 554.149 194.398 498.419 191.982 481.974C189.92 467.935 189.275 453.728 189.163 451.263C186.966 402.848 195.605 364.533 199.845 347.607C199.846 347.603 201.633 341.756 204.243 334.385C227.56 268.548 263.123 228.032 275.125 214.816C297.015 190.714 323.645 168.151 355.532 149.136C355.885 148.926 370.122 140.511 390.541 131.67C442.507 109.17 487.833 103.668 506.281 101.319C571.055 93.0726 625.197 100.138 650.746 104.006C654.647 104.597 689.084 108.105 736.466 120.065C738.412 120.556 754.811 125.435 774.169 132.385C776.792 133.326 791.351 138.44 815.662 148.72C881.839 176.704 932.477 210.344 991.615 261.739C1049.35 311.911 1095.82 364.457 1122.54 388.834C1122.59 388.876 1132.43 397.24 1144.38 405.074C1171.04 422.551 1185.68 422.985 1189.48 423.071V423.062C1193.88 422.968 1201.88 422.192 1213.79 409.355C1216.79 406.126 1219.15 403.056 1220.42 401.359C1220.57 401.165 1220.6 401.177 1221.49 399.067C1227.57 384.777 1237.22 356.683 1241.91 309.11C1241.92 309.037 1242.94 294.492 1242.84 274.584C1242.69 247.803 1240.64 228.5 1240.67 228.293C1240.75 227.753 1240.78 227.756 1241.8 221.61Z" fill="#FEE32D"/>
<path fill-rule="evenodd" clip-rule="evenodd" d="M169.358 362.353C191.988 300.791 229.047 245.105 282.506 198.723C282.506 198.723 282.706 203.409 284.015 212.705C285.74 224.945 276.732 248.611 276.971 249.327C277.806 251.474 278.531 254.751 288.557 257.226C296.647 259.223 293.192 255.538 292.423 245.934C291.765 237.715 292.945 234.467 295.627 230.601C300.136 224.102 304.776 223.08 314.709 214.067C324 205.636 325.931 199.58 346.185 189.318C351.685 186.532 367.052 180.737 375.073 184.278C384.807 188.574 387.654 192.604 392.498 197.898C397.668 203.549 405.054 219.174 406.095 218.182C414.448 210.221 420.483 198.761 431.331 194.693C441.709 190.876 475.468 192.307 499.684 197.556C504.428 198.584 507.084 197.853 507.084 197.853C507.084 197.853 508.949 193.089 511.493 191.114C517.891 186.147 538.572 186.939 547.518 188.967C553.722 190.518 559.997 197.874 562.072 204.713C565.193 215.004 570.303 240.977 570.303 240.977C570.303 240.977 582.469 225.688 589.031 221.294C614.981 203.92 645.641 195.385 676.135 190.425C691.876 187.864 719.066 186.403 737.188 212.705C751.487 233.459 753.354 243.421 755.282 245.35C755.844 245.912 766.685 235.63 771.663 228.81C777.526 220.775 790.451 209.862 800.053 205.31C808.931 201.101 821.883 200.657 829.279 201.492C835.092 202.115 841.972 204.595 847.003 207.518C853.541 211.317 860.08 219.569 860.941 221.294C861.674 222.76 864.654 211.366 869.721 204.713C874.658 198.23 883.997 195.687 890.615 194.114C894.372 193.222 895.279 193.582 899.375 193.024C994.086 252.867 1064.82 332.409 1099.6 366.659C1118.87 385.629 1144.73 400.957 1164.8 410.315C1164.8 410.315 1158.57 423.756 1156.73 425.729C1137.89 445.878 1124.63 451.058 1096.01 454.543C1079.07 456.605 1059.39 452.884 1045.58 449.697C1033.66 446.946 1020.24 435.895 1011.17 427.681C994.877 412.922 986.609 386.641 986.223 383.824C979.719 415.01 941.2 457.698 906.442 431.088C890.695 419.032 886.254 393.025 884.737 381.487C883.818 374.502 887.039 356.055 884.379 354.647C881.736 353.205 879.787 356.875 878.695 358.372C874.765 363.759 873.968 366.12 868.275 369.916C865.482 371.731 861.514 375.89 849.282 388.122C779.523 328.711 698.341 285.614 564.047 284.035C465.722 282.88 373.308 350.398 344.258 439.566C344.258 439.566 335.464 450.339 316.923 454.029C287.043 459.975 258.319 458.627 229.394 449.697C196.94 439.678 165.924 403.349 180.222 368.08C182.547 362.343 190.751 352.908 195.53 347.696C191.616 351.847 179.903 358.169 169.358 362.353Z" fill="black" fill-opacity="0.15"/>
<path fill-rule="evenodd" clip-rule="evenodd" d="M383.66 417.202C369.768 427.342 346.749 433.606 329.915 436.955C300.035 442.902 268.903 439.627 239.978 430.697C207.524 420.679 176.508 384.35 190.805 349.08C193.131 343.343 201.335 333.908 206.114 328.696C208.278 326.401 209.641 324.943 209.641 324.943C209.641 324.943 208.205 326.415 206.114 328.696C199.825 335.365 186.769 349.094 180.685 354.641C165.257 368.71 143.844 372.736 123.771 374.309L124.367 388.862C124.544 393.151 124.913 397.498 124.241 401.737C122.655 411.759 110.571 414.113 104.443 419.84C101.733 422.373 100.726 426.332 98.2151 429.063C88.4594 439.674 73.2527 442.033 59.5937 441.946C46.9486 441.826 40.6266 441.231 33.7078 439.441C28.77 438.139 23.3661 436.35 19.6652 432.534C15.9749 428.728 14.0455 422.937 12.8325 417.969C9.1787 403.003 6.97664 391.181 5.31709 375.86C4.60142 369.299 3.40893 359.637 2.81224 354.388C0.903185 339.715 -0.52816 291.165 0.187513 267.307C0.567547 253.819 0.513383 241.347 4.4185 228.124C7.34069 218.229 17.3903 207.694 27.0332 200.931C36.3956 187.648 55.9167 175.675 70.9166 171.409C83.249 167.9 99.9066 166.577 112.541 166.134C132.707 165.427 151.502 168.038 172.721 172.71C189.181 176.335 200.032 183.277 214.072 192.513C228.925 176.711 253.723 160.395 277.209 171.55C282.457 174.055 293.289 184.409 294.599 193.706C296.323 205.946 287.316 229.612 287.555 230.327C288.39 232.474 289.115 235.751 299.142 238.226C307.231 240.223 303.776 236.538 303.007 226.935C302.349 218.715 303.529 215.467 306.211 211.601C310.72 205.102 315.36 204.08 325.293 195.068C334.584 186.637 336.515 180.58 356.769 170.318C362.269 167.532 377.636 161.737 385.657 165.278C395.391 169.575 398.237 173.605 403.082 178.898C408.252 184.549 415.638 200.174 416.679 199.181C425.032 191.221 431.066 179.761 441.915 175.693C452.293 171.876 486.051 173.307 510.267 178.557C515.012 179.585 517.668 178.853 517.668 178.853C517.668 178.853 519.532 174.089 522.077 172.115C528.475 167.147 549.155 167.94 558.102 169.968C564.305 171.518 570.58 178.874 572.655 185.713C575.777 196.004 580.887 221.977 580.887 221.977C580.887 221.977 593.053 206.688 599.615 202.294C625.565 184.92 656.225 176.385 686.718 171.425C702.459 168.865 729.65 167.403 747.772 193.706C762.071 214.46 763.937 224.422 765.866 226.35C766.428 226.912 777.269 216.63 782.246 209.81C788.109 201.775 801.034 190.862 810.637 186.31C819.514 182.101 832.467 181.657 839.862 182.493C845.676 183.115 852.555 185.595 857.585 188.518C864.124 192.318 870.663 200.57 871.524 202.294C872.257 203.76 875.238 192.367 880.304 185.713C885.241 179.23 896.58 173.687 903.195 172.115C934.361 164.71 964.693 171.117 984.734 199.181C988.49 204.43 998.825 221.977 998.825 221.977C998.825 221.977 1022.02 199.418 1031.36 191.218C1037.21 186.084 1053.68 177.071 1061.18 174.73C1113.85 158.292 1167.53 188.198 1193.94 234.645C1204.16 252.629 1205.08 274.107 1206.93 294.081C1207.56 300.93 1208.08 302.9 1202.93 308.105C1201.71 309.346 1195.08 311.832 1195.93 312.337C1197.13 313.047 1204.29 315.296 1206.26 317.424C1210.8 322.329 1208.8 336.716 1207.2 342.144C1200.53 364.683 1190.96 381.439 1167.31 406.729C1148.47 426.879 1135.21 432.058 1106.59 435.542C1089.65 437.604 1069.97 433.884 1056.17 430.697C1044.24 427.945 1030.82 416.895 1021.75 408.682C1005.46 393.922 997.191 367.641 996.81 364.824C990.301 396.011 951.783 438.698 917.029 412.088C901.277 400.032 896.837 374.025 895.319 362.487C894.404 355.502 897.619 337.055 894.964 335.647C892.318 334.206 890.373 337.875 889.281 339.372C885.348 344.759 884.548 347.12 878.857 350.916C875.607 353.031 876.3 357.664 876.113 360.817C875.918 364.273 872.466 393.027 862.672 406.718C852.482 420.962 818.953 430.162 807.908 426.313C777.562 415.735 768.163 363.64 768.163 363.64C768.163 363.64 763.921 422.476 696.314 432.534C666.153 437.022 619.888 425.726 604.402 417.202C578.468 402.93 576.59 393.463 575.51 386.131C568.506 413.834 556.359 421.023 536.844 429.204C525.514 433.955 492.083 438.306 475.315 438.306C461.722 438.306 449.079 434.79 436.24 426.638C420.8 416.835 412.535 403.973 413.262 376.111C407.974 397.838 397.551 407.061 383.66 417.202ZM489.749 349.259C489.262 348.356 488.9 347.39 488.549 346.427C487.648 343.95 491.184 343.032 492.902 342.905C493.876 342.834 494.86 342.923 495.833 342.832C496.875 342.734 500.004 341.988 500.551 342.069C501.405 342.195 501.643 343.271 501.65 343.955C501.663 345.214 501.382 347.002 500.823 348.149C499.819 350.207 497.375 350.686 495.356 351.048C491.777 351.525 490.823 351.287 489.749 349.259ZM1093.59 339.715C1092.34 339.247 1088.12 337.605 1088.61 336.765C1089.18 335.81 1094.81 336.004 1096.54 335.958C1099.96 335.87 1106.99 335.703 1107.91 336.614C1108.42 337.132 1107.06 339.029 1106.59 339.596C1104.33 342.221 1100.51 342.34 1093.59 339.715ZM127.469 273.51C127.469 267.068 125.561 264.682 117.687 261.581C116.245 260.994 114.765 260.483 113.255 260.101C112.121 259.815 110.953 259.628 109.784 259.583C109.112 259.557 108.416 259.645 107.79 259.892C105.972 260.608 107.039 263.118 107.432 264.231C108.797 268.101 110.946 271.788 114.108 274.465C117.925 277.804 122.339 279.713 125.203 279.474C127.23 279.236 127.588 278.401 127.469 273.51ZM486.949 263.175C486.949 262.067 486.477 260.219 486.071 259.2C484.333 254.834 484.044 254.385 481.432 250.483C480.752 249.467 479.326 248.556 478.109 249.275C476.667 250.126 476.366 252.029 476.725 253.528C477.583 257.105 479.132 260.776 482.189 263.031C482.657 263.374 484.799 264.163 485.372 264.223C486 264.29 486.949 263.945 486.949 263.175Z" fill="#000100"/>
<path d="M1081.78 406.279C1052.32 399.36 1029.65 385.403 1015.1 365.124C1008.78 356.177 1001.55 341.43 1000.31 337.33C995.714 322.202 999.83 263.967 1001.38 256.333C1008.78 220.665 1031.44 194.422 1065.08 182.851C1074.98 179.51 1077.25 179.153 1090.25 179.153C1119.36 179.272 1140.95 188.815 1163.97 212.076C1173.04 221.142 1176.5 225.675 1179.36 231.878C1181.39 236.292 1184.25 241.779 1185.68 244.046C1189.62 250.487 1193.44 267.904 1194.27 283.411C1194.87 295.34 1194.75 297.487 1192.96 299.157C1188.19 304.048 1169.82 306.076 1131.41 306.076C1105.76 306.195 1066.75 304.406 1064.72 303.213C1064.25 302.855 1062.7 303.332 1061.5 304.287C1059.59 305.599 1059.24 307.269 1059.35 314.068C1059.59 323.731 1061.26 327.429 1068.42 334.228C1075.34 340.789 1080.11 343.533 1091.32 347.111C1103.49 351.167 1109.46 351.167 1115.3 347.111C1121.03 343.294 1123.17 340.551 1127.83 332.2C1132.12 324.089 1134.15 323.134 1148.7 322.299C1154.67 321.822 1164.45 320.987 1170.53 320.271C1184.61 318.482 1194.39 319.317 1196.54 322.18C1201.31 328.741 1191.78 355.233 1182.22 368.106C1171.78 382.162 1150.65 400.156 1133.91 406.517C1117.67 412.691 1095.26 409.38 1081.78 406.279ZM1126.99 261.695C1135.34 257.46 1135.46 254.776 1128.19 247.976C1125.08 245.233 1118.88 240.938 1114.35 238.553C1103.02 232.588 1094.78 232.469 1084.88 238.075C1073.79 244.278 1067.11 252.509 1069.97 256.446C1072.24 259.547 1079.16 263.245 1084.41 264.2C1087.51 264.796 1097.05 265.154 1105.52 264.915C1119.24 264.677 1121.74 264.319 1126.99 261.695Z" fill="#6AF02A"/>
<path d="M1081.78 406.279C1052.32 399.36 1029.65 385.403 1015.1 365.124C1008.78 356.177 1002.15 342.952 1000.31 337.098C999.372 334.127 998.95 330.491 998.814 328.338C998.814 328.338 1003.81 326.511 1006.36 324.128C1009.12 321.537 1012.74 315.999 1015 315.409C1020.04 314.098 1024.6 328.919 1025.62 329.541C1026.65 330.164 1037.32 330.526 1038.38 329.303C1043.62 323.237 1051.99 318.178 1055.57 323.062C1057.73 326.006 1060.47 331.148 1063.6 332.44C1064.73 332.908 1066.19 332.358 1066.19 332.358C1066.19 332.358 1069.06 334.834 1069.27 335.025C1075.75 341.018 1080.58 343.681 1091.32 347.111C1103.49 351.167 1109.46 351.167 1115.3 347.111C1119.65 344.213 1121.93 341.933 1124.82 337.348C1125.73 335.895 1132.14 338.401 1141.25 334.128C1154.52 327.904 1155.78 322.839 1160.33 326.132C1165.67 329.998 1167.92 328.75 1175.36 329.127C1187.92 329.766 1189.03 319.452 1193.35 320.811C1194.78 321.264 1196 321.464 1196.54 322.18C1201.31 328.741 1191.78 355.233 1182.22 368.106C1171.78 382.162 1150.65 400.156 1133.91 406.517C1117.67 412.691 1095.26 409.38 1081.78 406.279Z" fill="#C1FD20"/>
<path d="M1190.21 256.428C1190.52 257.64 1183.03 250.43 1175.54 252.129C1160.37 255.566 1162.64 261.962 1156.57 262.981C1149.26 264.208 1143.91 250.052 1143.16 253.365C1142 258.554 1139.56 264.053 1131.98 258.631C1131.56 258.329 1134.4 257.415 1133.05 253.869C1130.56 247.361 1108.96 232.31 1096.63 234.035C1083.01 235.941 1067.51 249.456 1069.57 255.718C1070.48 258.486 1070.13 263.515 1063.46 263.244C1051.49 262.923 1050.75 250.817 1042.14 252.19C1034.05 253.48 1029.52 265.723 1024.31 270.028C1021.12 272.673 1018.27 259.668 1009.45 259.564C1005.8 259.521 1004.3 262.422 1002.68 263.929C1001.78 264.768 1000.66 264.593 1000.69 264.094C1000.9 260.303 1001.13 257.548 1001.38 256.333C1008.78 220.665 1031.44 194.422 1065.08 182.851C1074.98 179.51 1077.25 179.153 1090.25 179.153C1119.36 179.272 1140.95 188.815 1163.97 212.076C1173.04 221.142 1176.5 225.675 1179.36 231.878C1181.39 236.292 1184.25 241.779 1185.68 244.046C1187.28 246.656 1188.85 251.07 1190.21 256.428Z" fill="#08DF1C"/>
<path d="M998.994 262.416C1000.5 274.252 1000.34 283.637 999.573 302.778C998.783 322.376 996.14 340.161 995.416 342.936C991.718 357.49 987.185 366.556 980.385 373.236C971.319 381.944 963.804 384.688 952.949 383.018C948.177 382.302 946.388 381.109 939.469 374.309C929.687 364.528 925.512 356.297 924.558 344.845C923.723 336.256 924.677 328.502 930.284 299.754C931.835 291.284 933.624 279.236 933.982 272.794C934.817 261.82 934.697 260.866 931.715 255.02C926.347 244.404 920.383 244.404 918.474 255.14C915.969 269.097 905.949 307.269 903.444 312.637C897.718 324.804 888.891 327.667 879.825 320.51C875.292 316.931 865.629 303.094 851.911 281.025C848.929 276.015 844.396 269.693 842.01 266.83C838.073 262.297 837.477 261.939 835.807 263.609C833.421 265.995 831.184 277.599 834.375 287.706C835.807 292.239 848.809 316.812 851.672 320.391C853.223 322.299 858.472 332.439 863.124 342.459C868.373 353.672 867.18 373.117 860.5 386.358C856.921 393.396 849.048 401.269 842.845 404.012C835.688 407.233 820.419 407.71 813.738 404.728C807.655 402.104 796.442 390.533 791.909 382.421C782.008 364.766 774.373 338.284 772.226 314.426C768.289 272.079 779.145 225.795 797.038 207.782C806.939 197.881 821.254 191.559 834.137 191.559C841.294 191.559 843.084 192.036 849.764 196.092C853.939 198.477 859.545 203.13 862.289 206.35C869.566 215.059 870.848 217.802 873.741 217.802C876.634 217.802 878.4 211.262 880.94 203.802C883.262 196.982 882.894 193.261 888.056 188.099C898.195 177.96 930.165 174.262 947.7 181.061C965.116 187.861 982.175 208.14 990.525 231.759C993.626 240.467 997.655 251.9 998.994 262.416Z" fill="#6AF02A"/>
<path d="M925.927 323.521C926.193 321.854 931.018 330.391 938.321 333.844C939.882 334.583 948.508 321.777 960.298 321.736C964.627 321.722 967.768 322.391 975.737 333.74C977.279 335.936 982.591 336.346 989.706 333.808C995.473 331.752 997.619 327.873 997.556 328.424C996.677 336.057 995.791 341.501 995.416 342.936C991.718 357.49 987.185 366.556 980.386 373.236C971.32 381.944 963.804 384.687 952.949 383.017C948.178 382.302 946.388 381.109 939.469 374.309C929.688 364.528 925.513 356.297 924.558 344.845C924.021 339.324 924.224 334.148 925.927 323.521Z" fill="#C1FD20"/>
<path d="M791.909 382.421C784.673 369.519 775.055 333.818 775.055 333.818C780.015 335.985 782.715 336.935 785.502 334.767C788.741 332.248 791.245 322.478 795.799 324.438C799.462 326.016 804.079 335.1 807.208 336.583C811.942 338.827 815.336 327.969 819.974 327.657C829.987 326.979 836.223 329.689 839.805 323.868C842.435 319.594 847.699 321.903 848.388 322.476C851.556 325.112 852.175 334.049 856.924 335.057C858.658 335.425 859.013 333.878 859.013 333.878C859.013 333.878 861.769 339.54 863.125 342.459C868.373 353.672 867.18 373.117 860.5 386.358C856.922 393.396 849.048 401.269 842.845 404.012C835.688 407.233 820.419 407.71 813.739 404.728C807.655 402.104 796.442 390.533 791.909 382.421Z" fill="#C1FD20"/>
<path d="M996.964 252.024C997.037 252.355 993.82 254.185 992.753 255.43C988.817 260.025 991.585 268.817 987.655 271.067C984.21 273.039 981.451 270.502 980.905 270.016C975.843 265.509 970.811 252.964 959.732 253.629C950.513 254.183 944.983 264.745 938.817 263.492C935.023 262.722 932.252 256.071 931.715 255.02C928.664 248.987 925.981 246.866 923.289 247.234C922.43 247.353 920.41 248.519 919.181 252.24C919.059 252.917 916.957 250.638 915.774 252.024C911.646 256.857 910.413 253.941 909.665 254.907C906.937 258.43 904.388 258.489 901.597 257.948C898.366 257.32 896.201 251.852 896.201 251.852C895.608 257.389 895.281 266.643 887.153 260.644C882.481 257.195 879.067 252.401 873.656 252.206C865.514 251.915 856.766 256.85 856.634 260.702C856.325 269.674 852.345 269.707 851.589 269.68C847.078 269.519 841.883 262.072 840.127 259.815C837.992 257.072 828.022 248.722 824.772 250.374C813.364 256.173 821.633 262.843 816.449 269.788C815.087 271.612 810.569 272.179 807.167 270.087C802.052 266.941 797.818 259.971 797.53 259.664C794.419 256.368 792.095 256.352 789.318 254.844C787.345 253.773 785.397 251.702 784.823 249.594C784.373 247.941 777.086 249.33 777.086 249.33C777.086 249.33 781.676 233.61 784.649 226.99C788.213 219.055 792.388 212.463 797.038 207.782C806.939 197.881 821.254 191.559 834.137 191.559C841.294 191.559 843.084 192.036 849.764 196.092C853.939 198.477 859.546 203.13 862.289 206.35C869.566 215.059 870.791 217.802 873.741 217.802C876.691 217.802 878.396 211.275 881.007 203.612C883.324 196.813 883.03 193.125 888.056 188.099C898.195 177.96 930.165 174.262 947.7 181.061C965.116 187.861 982.175 208.14 990.525 231.759C993.627 240.467 994.463 240.627 996.964 252.024Z" fill="#08DF1C"/>
<path d="M672.143 409.738C660.811 408.545 644.707 404.847 635.76 401.269C601.524 387.908 582.915 370.373 579.098 347.708C575.996 329.695 580.768 315.619 596.872 294.267C601.524 288.183 614.884 278.043 624.666 273.272C632.181 269.574 634.925 268.858 644.945 268.262C656.039 267.665 656.993 267.784 666.417 271.363C671.904 273.51 679.3 276.85 683.118 278.759C686.816 280.668 692.184 282.576 695.046 282.934C699.818 283.65 700.534 283.292 705.544 278.878C710.673 274.345 710.912 273.868 710.793 267.665C710.673 264.086 709.719 259.315 708.645 257.048C706.14 251.8 696.001 240.467 690.156 236.411C685.742 233.31 685.145 233.191 678.585 234.383C674.767 235.099 669.519 236.769 666.894 238.201C661.288 241.064 653.871 247.625 649.478 251.203C646.294 253.797 645.422 255.498 640.531 259.673C633.016 266.114 630.392 267.546 624.666 268.739C617.747 270.051 607.727 269.216 603.194 266.83C595.321 262.536 590.669 250.965 590.549 235.099C590.43 228.896 590.907 227.226 594.367 222.216C600.689 213.15 607.488 207.663 620.252 201.221C632.778 194.899 651.236 188.442 659.618 186.31C662.73 185.518 670.716 183.59 676.318 182.612C703.56 177.857 719.143 180.823 728.09 188.099C730.833 190.366 735.247 195.018 737.871 198.477C743.597 205.993 750.32 215.729 754.452 225.437C759.006 236.133 762.445 248.579 765.188 262.655C767.455 274.465 767.693 279.236 767.216 303.81C766.739 333.99 766.143 338.523 759.224 358.683C753.259 375.741 748.965 383.256 739.661 392.68C726.419 405.921 717.592 409.5 696.001 410.335C688.486 410.693 677.75 410.454 672.143 409.738ZM667.079 356.804C676.33 360.143 685.683 360.385 691.109 358.061C692.993 357.254 695.004 354.909 696.267 350.109C696.509 349.191 696.387 348.44 696.363 348.21C695.926 343.905 692.588 338.845 686.229 333.22C673.345 321.649 662.612 320.617 653.069 329.445C648.82 333.367 647.135 336.658 647.382 339.81C647.495 341.258 648.144 342.964 648.922 344.361C652.417 350.638 658.184 353.593 667.079 356.804Z" fill="#6AF02A"/>
<path d="M672.143 409.738C660.811 408.545 644.707 404.847 635.76 401.269C601.524 387.908 582.915 370.373 579.098 347.708C578.073 341.757 578.727 330.739 578.727 330.739C578.727 330.739 580.678 333.441 587.935 324.424C595.176 315.424 600.018 335.472 608.288 335.641C611.383 335.704 619.159 336.474 631.368 323.367C636.537 317.818 643.691 320.02 643.179 325.264C642.261 334.673 647.311 339.804 647.311 339.804C647.311 339.804 648.486 346.273 653.385 349.866C661.092 355.518 675.427 361.578 689.267 358.742C693.885 357.797 695.678 352.895 696.262 349.848C697.182 345.063 691.55 338.643 691.55 338.643C691.55 338.643 696.045 339.566 700.12 337.296C706.163 333.93 713.116 321.122 721.519 312.511C728.297 305.568 737.43 315.265 735.283 324.982C734.9 326.712 739.342 332.11 740.658 332.321C742.037 332.542 747.532 325.765 754.286 324.077C761.362 322.309 766.534 326.04 766.482 326.797C765.658 338.685 763.86 345.177 759.224 358.683C753.26 375.741 748.965 383.256 739.661 392.68C726.42 405.921 717.592 409.5 696.001 410.335C688.486 410.693 677.75 410.454 672.143 409.738Z" fill="#C1FD20"/>
<path d="M750.734 254.592C746.871 258.152 743.403 268.127 738.73 269.155C737.176 269.497 734.835 264.475 734.34 263.576C731.307 258.065 728.408 249.348 717.894 250.663C713.255 251.243 713.335 255.501 712.068 256.65C710.079 258.456 708.742 257.251 708.645 257.048C706.14 251.8 696.001 240.467 690.156 236.411C685.742 233.31 685.145 233.191 678.585 234.383C674.767 235.099 669.519 236.769 666.894 238.201C661.288 241.064 649.478 251.203 649.478 251.203C649.478 251.203 645.997 249.363 639.359 254.375C635.229 257.494 634.325 255.298 632.149 256.395C630.615 257.168 629.521 260.585 626.647 261.184C625.32 261.436 623.459 257.972 620.603 257.786C617.122 257.56 616.814 262.359 610.157 261.344C607.357 260.917 607.822 258.629 605.404 257.591C603.339 256.705 601.085 257.162 600.991 256.836C599.606 252.036 595.644 251.374 594.018 251.599C593.682 251.646 592.495 250.87 592.39 250.467C591.227 245.999 590.592 240.829 590.549 235.099C590.43 228.896 590.907 227.226 594.366 222.216C600.689 213.15 607.488 207.663 620.252 201.221C632.778 194.899 651.634 188.325 659.618 186.31C662.204 185.657 673.076 183.2 676.318 182.612C703.527 177.673 719.143 180.823 728.089 188.099C730.833 190.366 735.247 195.018 737.871 198.477C746.875 210.345 750.447 217.217 754.452 225.437C757.894 232.5 761.903 247.8 761.903 247.8C761.903 247.8 754.066 251.523 750.734 254.592Z" fill="#08DF1C"/>
<path d="M422.513 297.875C422.155 297.875 419.489 257.883 419.489 257.883L419.012 244.165C418.296 226.988 419.489 218.041 423.545 212.196C425.215 209.691 427.959 205.038 429.629 201.698C433.327 194.302 438.695 188.576 444.898 185.236C452.293 181.3 473.885 181.658 497.385 186.191C507.286 188.099 517.664 189.65 520.646 189.65C525.656 189.769 526.014 189.531 526.014 186.549C526.014 181.777 528.996 179.63 537.466 178.437C546.293 177.125 556.194 178.795 559.892 182.135C563.471 185.594 569.197 206.947 572.417 229.731C580.768 289.018 577.428 359.518 565.26 383.853C559.415 395.304 542.237 405.325 523.032 408.307C506.57 410.812 474.362 409.858 462.194 406.279C445.494 401.507 434.758 393.038 428.197 379.558C422.591 367.868 420.801 355.939 422.59 342.459C424.38 328.502 426.527 324.327 432.849 322.657C439.887 320.629 448.834 320.152 455.037 321.464C458.019 322.18 462.91 323.015 466.012 323.373C470.306 323.969 472.811 325.162 476.032 328.264C480.326 332.32 480.446 332.439 479.73 339.596C478.776 347.589 480.446 352.957 484.979 357.251C488.319 360.353 494.283 360.472 503.707 357.848C517.067 354.03 524.225 348.901 528.042 340.551C531.024 333.751 533.052 316.335 531.979 306.434L531.024 298.322L529.593 302.378C527.923 307.388 523.867 310.609 517.545 312.041C508.598 314.068 476.867 315.858 457.423 315.381C433.327 314.903 430.225 313.83 425.453 304.048C423.783 300.589 422.99 297.875 422.513 297.875ZM506.212 268.5C520.407 261.223 522.197 232.952 509.194 222.693C502.872 217.683 481.758 220.069 476.509 226.391C473.288 230.328 470.664 238.559 469.829 247.625C468.636 260.031 472.93 266.472 484.859 270.409C489.154 271.84 502.037 270.767 506.212 268.5Z" fill="#6AF02A"/>
<path d="M528.983 339.885C530.064 337.778 531.127 337.091 533.051 337.091C535.318 337.091 538.062 334.705 544.503 327.071C549.156 321.584 553.808 316.693 554.762 316.335C559.295 314.546 561.084 315.619 562.516 320.748C564.544 328.502 568.003 333.512 571.462 333.512C571.775 333.512 572.054 333.519 572.302 333.541C574.544 331.66 575.835 331.741 575.44 336.168C573.581 357 570.126 374.119 565.259 383.852C559.415 395.304 542.237 405.324 523.031 408.307C516.376 409.319 507.147 409.767 497.708 409.704C496.363 409.755 495.235 409.769 494.402 409.738C493.921 409.712 493.252 409.671 492.443 409.616C480.294 409.293 468.528 408.142 462.195 406.279C445.493 401.507 434.757 393.037 428.197 379.557C422.59 367.868 420.801 355.938 422.59 342.459C422.802 340.805 423.019 339.288 423.248 337.896C423.4 336.972 426.931 336.985 427.655 336.527C429.067 335.636 431.575 333.902 433.684 331.962C442.392 323.731 446.209 321.345 450.384 321.822C454.321 322.18 455.634 323.612 456.707 328.979C457.542 332.916 462.313 334.705 472.334 334.705L480.059 334.826C480.059 334.826 480.049 335.722 479.982 336.739C479.909 337.858 479.776 339.127 479.729 339.596C478.775 347.588 480.445 352.957 484.978 357.251C488.318 360.352 494.283 360.471 503.707 357.848C517.067 354.03 524.225 348.901 528.042 340.551C528.239 340.1 528.557 339.895 528.983 339.885Z" fill="#C1FD20"/>
<path d="M517.688 249.321C517.688 249.321 519.905 230.658 509.269 222.831C500.543 216.277 479.387 222.404 476.46 226.337C470.694 234.088 470.134 248.325 469.712 248.958C469.712 248.958 461.666 254.904 459.042 260.034C454.986 268.145 449.035 268.38 447.007 260.149C446.649 258.599 443.823 256.571 441.438 255.497C439.29 254.543 436.963 251.987 436.128 250.914C433.862 248.17 432.014 249.533 425.453 254.901L419.666 258.995L419.489 257.883L419.012 244.165C418.296 226.987 419.489 218.041 423.545 212.196C425.215 209.69 427.959 205.038 429.628 201.698C433.326 194.302 438.695 188.576 444.898 185.236C452.293 181.299 473.884 181.657 497.384 186.191C507.285 188.099 517.664 189.65 520.645 189.65C525.656 189.769 526.014 189.53 526.014 186.549C526.014 181.777 528.996 179.63 537.465 178.437C546.293 177.124 556.194 178.794 559.892 182.135C563.47 185.594 569.197 206.947 572.417 229.731C573.982 240.847 575.138 252.358 575.9 263.883C575.569 260.105 575.139 257.897 574.615 257.976C569.366 258.571 565.498 258.002 562.397 254.543L558.937 250.845C558.937 250.845 554.341 255.704 548.974 256.492C545.756 256.964 541.044 253.708 541.044 253.708C539.178 254.626 538.76 257.04 537.261 258.364C532.334 262.716 530.547 265.399 525.298 255.379C522.474 243.318 519.179 245.059 517.688 249.321Z" fill="#08DF1C"/>
<path d="M221.49 264.185C221.295 263.859 218.948 258.92 218.562 251.522C217.832 237.561 218.604 216.071 218.604 215.058C218.604 210.882 221.926 201.459 225.486 195.852C228.809 190.365 241.269 181.537 248.508 179.39C250.882 178.674 265.597 176.408 270.818 178.794C277.463 181.776 281.024 185.116 284.109 191.08C286.957 196.687 286.482 201.578 281.38 218.04C279.481 224.243 277.938 230.207 277.938 231.281C277.938 234.263 283.516 240.466 288.5 242.971C300.723 249.174 324.1 248.458 335.018 241.659C340.833 238.2 344.393 233.309 344.393 229.253C344.393 228.06 342.494 223.169 340.239 218.398C334.781 207.423 333.831 199.789 337.154 194.54C342.375 186.19 361.956 174.38 372.636 173.068C384.028 171.756 394.59 179.271 404.439 195.971C409.78 204.799 418.02 223.646 418.02 229.253C418.139 233.428 421.91 297.864 421.435 297.864C421.079 297.864 420.341 302.377 419.985 307.864C418.798 326.354 413.696 347.588 406.932 362.379C400.405 376.933 399.574 378.126 391.742 385.521C373.111 402.818 352.462 410.095 322.083 410.095C283.753 410.095 251 397.928 230.826 376.336C221.452 366.197 218.129 357.966 218.96 346.514C220.028 331.006 231.42 314.067 242.812 311.204C250.882 309.177 265.478 311.801 273.191 316.692C276.633 318.839 281.38 324.207 281.498 325.996C281.498 328.74 288.974 336.017 293.009 337.448C304.045 341.027 328.373 334.108 337.985 324.684C347.716 315.022 348.665 308.58 341.189 304.763C334.425 301.303 328.61 301.423 310.928 305.24C291.348 309.415 280.549 309.892 266.19 307.029C245.897 303.093 236.523 295.935 227.504 277.326C224.537 271.243 221.633 264.426 221.49 264.185Z" fill="#6AF02A"/>
<path d="M224.957 327.446C225.019 327.337 232.007 322.559 235.336 323.373C236.997 323.731 240.913 326.593 243.998 329.576C249.101 334.705 249.695 334.944 253.136 333.751C255.154 333.035 259.307 330.53 262.273 328.263C269.038 323.015 272.123 322.896 275.564 327.548C277.107 329.576 278.888 331.126 279.599 331.126C280.43 331.126 283.041 332.558 285.533 334.228C291.585 338.523 298.23 339.596 309.623 338.165C325.286 336.256 326.711 335.898 329.677 333.154C331.339 331.723 334.306 329.218 336.323 327.548C338.459 325.878 342.257 322.776 344.867 320.748C351.869 314.904 358.87 315.738 358.87 322.299C358.87 323.731 359.344 325.162 360.056 325.401C360.65 325.64 361.362 326.951 361.6 328.383C362.312 333.154 364.803 334.824 370.618 334.586C377.145 334.228 379.044 333.274 386.639 326.593C396.014 318.363 400.523 318.721 402.422 327.906C403.134 331.485 406.812 334.705 410.254 334.705C411.2 334.705 412.331 335.36 412.825 336.172C414.183 335.621 415.484 336.781 415.422 337.035C413.169 346.311 410.25 355.121 406.931 362.38C400.404 376.933 399.573 378.125 391.741 385.522C373.11 402.819 352.462 410.095 322.082 410.095C283.752 410.095 250.999 397.927 230.825 376.336C221.451 366.197 218.128 357.966 218.959 346.514C219.405 340.03 221.656 333.296 224.957 327.446Z" fill="#C1FD20"/>
<path d="M218.715 253.511C218.649 252.871 218.597 252.207 218.561 251.522C217.831 237.56 218.603 216.071 218.603 215.058C218.603 210.882 221.925 201.459 225.486 195.852C228.808 190.364 241.269 181.537 248.508 179.39C250.881 178.675 265.596 176.408 270.818 178.794C277.463 181.776 281.023 185.116 284.108 191.081C286.956 196.687 286.482 201.578 281.379 218.039C279.48 224.242 277.937 230.207 277.937 231.281C277.937 234.263 283.515 240.466 288.499 242.971C300.722 249.174 324.099 248.458 335.017 241.659C340.832 238.2 344.392 233.309 344.392 229.253C344.392 228.06 342.494 223.169 340.239 218.398C334.78 207.423 333.831 199.789 337.153 194.54C342.374 186.189 361.955 174.38 372.635 173.067C384.027 171.756 394.589 179.27 404.439 195.971C409.779 204.798 418.019 223.647 418.019 229.253C418.077 231.254 419.579 258.311 419.579 258.311C419.579 258.311 411.912 264.987 409.842 265.968C406.281 267.655 404.42 265.58 403.015 261.343C400.879 254.782 398.031 252.277 391.861 251.561C387.351 251.084 386.283 251.441 383.198 254.424C378.807 258.718 373.822 261.939 371.45 261.939C368.127 261.939 364.804 256.929 364.804 252.157C364.804 249.652 364.211 247.624 363.498 247.624C362.905 247.624 359.82 249.533 356.853 251.799C350.564 256.69 348.784 256.929 345.105 253.469L342.375 250.965L337.392 256.452C331.577 262.893 326.118 263.967 322.795 259.315C321.845 257.763 319.709 255.021 318.167 253.231C315.318 249.891 315.318 249.891 310.809 251.68C308.317 252.754 305.469 254.662 304.638 256.094C303.214 258.121 301.79 258.36 295.145 258.121C288.974 257.883 287.194 258.241 286.363 259.911C284.346 263.371 281.617 262.177 273.785 254.662C265.122 246.312 263.461 246.193 256.815 253.588C252.661 258.121 246.491 261.939 243.406 261.939C242.575 261.939 240.201 260.149 238.065 258.121C232.488 252.157 226.911 249.533 221.926 250.487C219.814 250.892 218.561 251.68 218.561 251.68C218.561 251.68 218.705 253.171 218.715 253.511Z" fill="#08DF1C"/>
<path d="M68.3505 409.524C58.2109 408.212 50.815 405.826 48.1906 402.844C43.8962 397.953 36.7389 363.002 34.3531 334.849C33.8759 330.316 33.3988 326.261 33.1602 325.903C31.9673 323.994 30.7744 290.951 30.7744 262.083C30.7744 228.444 28.5676 204.376 56.5206 186.598C67.8638 179.382 94.26 172.968 134.501 176.207C177.773 179.69 197.421 190.39 205.175 198.383C212.332 205.779 213.73 207.978 217.539 219.523C218.99 223.919 217.957 242.372 218.177 250.794C218.373 258.23 218.977 265.662 218.177 273.058C217.243 281.706 216.03 289.162 211.855 302.641C209.827 309.083 201.238 320.296 193.127 326.738C190.383 328.885 187.639 331.151 186.924 331.748C183.942 334.134 173.921 338.07 165.213 340.217C159.249 341.649 145.715 342.949 136.901 343.036C128.426 343.121 117.35 344.033 112.619 345.795C110.493 346.586 108.874 347.476 107.395 349.871C106.95 350.594 107.742 354.795 108.094 356.457C109.164 361.512 109.609 364.257 110.566 368.111C112.37 375.385 116.909 392.88 114.289 398.024C109.562 407.301 97.6956 409.524 87.7946 410.001C81.353 410.24 72.6449 410.001 68.3505 409.524ZM137.18 287.611C150.779 282.601 159.01 268.883 159.01 251.347C159.01 243.355 158.772 242.52 154.835 237.987C149.825 232.142 143.264 229.279 132.647 228.444C112.487 226.774 99.6042 238.106 98.4113 258.743C97.9341 266.378 98.292 268.048 101.036 272.7C108.551 285.583 124.774 292.263 137.18 287.611Z" fill="#6AF02A"/>
<path d="M107.19 405.325C98.4466 410.46 84.0997 411.129 69.8459 410.095C63.1693 409.611 48.8582 405.953 46.8302 400.943C43.6094 393.07 38.4573 369.46 35.5944 346.676C34.4015 337.849 35.3785 336.614 37.2871 334.109C41.4622 328.86 50.7668 321.584 53.3911 321.584C54.9419 321.584 57.8048 323.134 59.952 325.162C65.6779 330.411 68.5408 330.65 75.1017 326.832C78.2032 325.043 80.9469 322.896 81.3048 322.061C81.6626 321.106 82.6169 320.391 83.452 320.391C84.1677 320.391 85.8377 319.317 87.0306 318.005C89.8936 314.784 95.5002 314.903 97.1702 318.124C98.0052 319.436 98.3631 322.777 98.1245 325.52L97.7666 330.53L103.612 330.411C107.906 330.411 109.815 329.815 111.366 327.906C113.513 325.162 117.569 322.777 120.312 322.777C121.267 322.777 122.698 324.685 123.533 326.952C125.322 331.843 126.635 331.723 134.746 326.236C142.619 320.987 147.629 322.061 148.942 329.337C149.777 333.393 149.896 333.513 155.622 333.513C160.99 333.513 161.944 333.035 166.954 328.264C172.203 323.134 176.617 320.629 177.929 322.061C178.287 322.419 178.883 324.447 179.36 326.594C179.957 329.337 180.911 330.65 183.058 331.127L186.259 332.197C186.259 332.197 184.472 333.427 182.315 334.399C179.033 335.878 174.839 337.345 174.35 337.568C167.551 340.67 154.071 342.698 138.206 342.936C117.926 343.294 111.843 345.581 107.31 350.094C106.966 352.279 108.622 360.353 111.008 370.015C113.393 379.797 115.302 389.817 115.421 392.203C115.66 397.213 112.558 402.223 107.19 405.325Z" fill="#C1FD20"/>
<path d="M33.14 251.312C31.0046 249.539 30.0953 247.353 31.2212 231.775C31.5728 226.909 32.3587 220.974 33.5796 216.179C41.2362 186.115 72.597 172.469 127.008 175.526C184.058 178.731 211.48 193.742 217.539 219.524C218.691 224.422 218.379 228.513 218.392 233.437C218.394 234.401 218.075 237.981 218.095 244.058C218.107 247.265 218.19 251.439 218.217 251.874C217.349 252.121 212.252 255.556 210.99 255.293C209.728 255.03 207.133 253.574 205.224 252.057C198.742 246.906 188.41 249.968 182.166 258.891C175.203 268.843 169.025 266.542 166.299 252.982C165.79 250.451 158.933 247.76 158.933 246.123C158.933 240.256 151.159 233.962 149.011 232.875C142.61 229.637 134.119 227.715 125.8 228.438C112.538 229.59 98.2929 239.109 98.2929 260.66C98.2929 266.354 90.2678 253.331 90.9435 251.446C91.7746 249.129 88.4608 250.473 85.2332 253.762C80.8592 258.219 70.8487 264.762 69.309 264.171C66.6932 263.167 69.0018 255.717 73.1893 251.65C77.2738 247.684 76.1674 245.52 71.5022 248.348C69.8791 249.331 66.0423 251.038 62.9745 252.141C58.9558 253.586 56.6791 255.052 54.8278 257.389C49.7666 263.78 34.3663 260.869 34.3663 253.522C34.3663 252.865 33.8149 251.871 33.14 251.312Z" fill="#08DF1C"/>
<path d="M621.292 570.85C623.233 570.85 654.991 565.438 655.862 578.913C657.903 610.465 624.129 674.968 596.333 693.097C580.843 703.2 553.547 717.247 515.067 718.399C490.636 719.129 485.115 717.977 474.378 715.3C466.203 713.322 438.886 697.724 428.066 689.975C414.844 680.505 401.411 650.963 398.853 641.914C381.026 578.852 393.281 442.714 450.078 423.663C452.075 422.994 469.767 407.676 489.353 403.667C533.627 394.606 557.559 404.985 561.548 406.624C581.02 414.628 599.411 427.325 601.813 429.296C604.214 431.268 632.309 457.669 642.106 477.343C645.785 484.73 647.962 491.485 650.118 504.875C657.67 551.771 547.298 556.605 543.282 524.359C542.723 519.871 539.849 506.031 536.443 502.93C530.982 497.957 531.905 496.238 519.119 497.257C502.911 498.549 496.056 509.453 494.912 522.145C491.381 561.318 487.135 576.871 503.364 589.686C506.437 592.112 522.087 608.267 539.107 602.515C550.584 598.637 553.026 583.4 554.79 581.677C556.395 580.11 557.472 579.396 558.947 577.955C561.047 575.904 575.952 573.218 581.114 573.218C582.299 573.218 593.104 573.348 593.236 573.218C594.638 571.849 604.639 573.922 605.705 572.88C607.301 571.321 617.738 570.85 621.292 570.85Z" fill="#000100"/>
<path d="M483.661 561.255C482.789 562.875 482.615 565.529 482.713 571.101C482.996 582.508 484.974 586.873 493.45 594.9C501.644 602.645 507.296 605.884 520.576 610.108C534.987 614.896 542.051 614.896 548.974 610.108C555.755 605.602 558.298 602.363 563.808 592.506C568.894 582.93 571.295 581.804 588.532 580.818C595.596 580.255 607.181 579.269 614.386 578.424C631.057 576.312 642.642 577.297 645.185 580.677C650.836 588.422 643.631 611.376 628.232 634.893C622.157 644.046 596.726 668.971 588.673 673.618C584.858 675.871 576.947 678.828 571.013 680.236C556.32 683.757 525.238 683.616 509.274 679.955C474.378 671.787 447.534 655.311 430.298 631.372C422.81 620.811 415.181 606.447 412.779 598.561C406.914 593.355 407.304 512.957 414.051 502.945C422.81 460.84 449.653 429.86 489.494 416.2C501.221 412.257 503.905 411.835 519.304 411.835C553.777 411.975 579.348 423.241 606.616 450.701C617.353 461.403 621.45 466.754 624.841 474.077C627.243 479.287 630.633 485.765 632.329 488.44C636.991 496.045 643.451 507.522 636.214 518.373C629.028 529.146 569.265 528.511 567.183 520.157C565.112 511.853 561.794 508.118 560.326 498.002C556.054 468.564 504.147 473.572 491.967 493.322C482.543 508.602 483.661 561.255 483.661 561.255Z" fill="#9946F2"/>
<path d="M530.608 681.363C512.524 680.377 507.579 679.533 491.049 674.181C454.458 662.353 421.398 629.119 412.356 595.041C412.356 595.041 411.076 588.903 411.948 584.536C412.35 582.516 417.583 581.945 417.583 581.945C421.539 578.424 426.201 574.622 428.038 573.355C431.146 571.102 431.429 571.102 433.972 574.481C435.385 576.312 437.645 580.255 438.917 583.212C441.177 588.282 441.601 588.422 448.665 588.422C455.023 588.422 456.435 587.859 460.674 583.494C464.065 579.973 466.749 578.565 469.857 578.565C474.943 578.565 477.345 580.255 481.725 586.733C483.42 589.126 485.539 591.239 486.387 591.239C487.093 591.239 490.767 593.774 494.299 597.012C502.069 603.772 514.219 609.686 527.358 613.207C540.074 616.586 546.431 614.756 555.473 605.18C559.57 600.955 563.244 598.28 565.222 598.28C567.906 598.28 585.707 590.112 593.336 585.465C595.456 584.057 597.575 584.198 603.509 585.888C607.747 587.014 613.963 587.859 617.495 587.577C624.983 587.155 634.308 583.494 635.438 580.677C637.557 574.763 647.164 580.959 647.164 588.141C647.164 604.053 627.668 638.554 608.03 657.565C592.913 672.21 580.621 678.688 564.515 680.659C550.952 682.208 548.833 682.349 530.608 681.363Z" fill="#C692FE"/>
<path fill-rule="evenodd" clip-rule="evenodd" d="M411.644 510.941C411.534 511.432 412.983 504.531 414.051 502.945C422.811 460.84 449.654 429.86 489.495 416.2C501.221 412.257 503.906 411.835 519.305 411.835C553.778 411.975 579.349 423.241 606.616 450.701C617.354 461.403 621.451 466.754 624.842 474.077C627.243 479.287 642.29 505.033 630.665 486.672C626.568 485.827 615.118 486.532 609.042 489.489C604.804 491.46 600.283 494.417 598.87 495.966C595.056 500.191 589.263 499.346 583.612 493.713C578.95 489.207 578.667 489.066 577.82 491.742C576.929 494.514 563.363 494.854 560.327 494.641C560.327 494.641 560.242 495.767 560.264 497.59C555.568 468.611 504.09 473.664 491.967 493.322C490.048 496.435 488.565 501.1 487.422 506.554L487.815 500.81C484.312 500.699 477.283 508.76 476.639 507.733C473.954 503.649 464.488 496.89 461.521 496.89C457.989 496.89 448.806 506.043 444.003 514.07C440.895 519.421 438.634 518.998 432.418 512.38C426.625 506.184 421.963 505.198 416.171 509L411.644 510.941Z" fill="#6807CF"/>
<path fill-rule="evenodd" clip-rule="evenodd" d="M691.338 675.81C671.693 658.015 662.123 625.533 658.397 599.294C654.768 573.779 652.745 493.836 670.473 464.237C677.956 452.459 695.128 436.111 706.39 426.224C713.445 420.035 733.304 409.168 742.35 406.345C805.844 386.527 870.57 422.583 902.408 478.583C914.73 500.265 915.843 526.161 918.07 550.243C918.83 558.501 919.451 560.875 913.253 567.151C911.775 568.648 903.778 571.645 904.806 572.253C906.251 573.11 914.89 575.821 917.267 578.386C922.738 584.3 920.329 601.646 918.391 608.19C910.351 635.365 898.811 655.568 870.302 686.059C847.585 710.353 822.855 718.61 788.094 718.612C732.105 718.616 702.268 685.712 691.338 675.81ZM781.425 605.263C779.915 604.698 774.82 602.718 775.419 601.705C776.104 600.554 782.891 600.788 784.979 600.733C789.101 600.627 797.58 600.425 798.682 601.523C799.303 602.148 797.654 604.435 797.098 605.119C794.368 608.284 789.764 608.427 781.425 605.263Z" fill="#000100"/>
<path d="M767.182 685.516C731.658 677.175 704.332 660.347 686.785 635.897C679.163 625.111 670.451 607.33 668.951 602.387C663.414 584.147 668.376 513.935 670.246 504.731C679.163 461.728 706.489 430.087 747.047 416.136C758.985 412.109 761.717 411.677 777.394 411.677C812.487 411.821 838.519 423.327 866.276 451.372C877.207 462.303 881.378 467.768 884.83 475.247C887.275 480.568 890.726 487.184 892.452 489.917C897.198 497.683 901.801 518.682 902.808 537.379C903.527 551.761 903.383 554.35 901.225 556.363C895.473 562.26 873.324 564.705 827.013 564.705C796.091 564.849 749.061 562.691 746.616 561.253C746.04 560.822 744.171 561.397 742.733 562.548C740.431 564.13 740 566.143 740.144 574.341C740.431 585.991 742.445 590.449 751.074 598.647C759.416 606.557 765.169 609.865 778.688 614.18C793.358 619.07 800.549 619.07 807.597 614.18C814.5 609.578 817.089 606.27 822.698 596.202C827.876 586.422 830.321 585.272 847.867 584.265C855.058 583.69 866.852 582.683 874.187 581.82C891.158 579.663 902.951 580.669 905.54 584.121C911.293 592.031 899.802 623.971 888.281 639.493C875.697 656.44 850.216 678.134 830.033 685.804C810.449 693.247 783.434 689.256 767.182 685.516ZM821.693 511.196C831.759 506.09 831.904 502.854 823.131 494.656C819.392 491.348 811.913 486.17 806.448 483.294C792.784 476.103 782.861 475.959 770.923 482.719C757.548 490.197 749.494 500.121 752.945 504.867C755.678 508.607 764.02 513.065 770.348 514.216C774.087 514.935 785.593 515.366 795.805 515.079C812.344 514.791 815.365 514.36 821.693 511.196Z" fill="#9946F2"/>
<path d="M767.183 685.516C731.658 677.174 704.332 660.347 686.786 635.897C679.163 625.111 671.171 609.165 668.95 602.107C667.824 598.525 667.316 594.141 667.152 591.545C667.152 591.545 673.173 589.343 676.245 586.47C679.583 583.346 683.938 576.668 686.672 575.958C692.749 574.377 698.238 592.246 699.475 592.996C700.713 593.747 713.577 594.183 714.851 592.709C721.168 585.395 731.267 579.296 735.586 585.184C738.189 588.733 741.492 594.934 745.26 596.491C746.625 597.055 748.381 596.392 748.381 596.392C748.381 596.392 751.851 599.378 752.1 599.608C759.907 606.834 765.73 610.044 778.689 614.18C793.359 619.07 800.55 619.07 807.597 614.18C812.839 610.685 815.594 607.937 819.071 602.408C820.174 600.656 827.905 603.678 838.883 598.526C854.879 591.022 856.406 584.915 861.892 588.886C868.328 593.547 871.039 592.043 880.003 592.497C895.156 593.267 896.494 580.832 901.7 582.47C903.426 583.016 904.893 583.258 905.54 584.121C911.293 592.031 899.802 623.971 888.282 639.493C875.697 656.439 850.216 678.134 830.033 685.804C810.449 693.247 783.435 689.256 767.183 685.516Z" fill="#C692FE"/>
<path d="M897.917 504.846C898.291 506.307 889.259 497.614 880.226 499.662C861.937 503.806 864.677 511.518 857.355 512.746C848.537 514.226 842.088 497.158 841.191 501.152C839.785 507.409 836.843 514.039 827.704 507.502C827.195 507.138 830.621 506.035 828.992 501.761C825.999 493.914 799.954 475.768 785.091 477.847C768.659 480.146 749.98 496.439 752.461 503.99C753.556 507.327 753.141 513.39 745.088 513.064C730.664 512.677 729.767 498.08 719.386 499.736C709.631 501.292 704.176 516.052 697.897 521.243C694.041 524.432 690.609 508.752 679.972 508.627C675.568 508.575 673.766 512.073 671.816 513.889C670.73 514.9 669.383 514.69 669.416 514.088C669.669 509.517 669.948 506.196 670.246 504.731C679.163 461.728 706.489 430.087 747.047 416.136C758.984 412.109 761.717 411.677 777.394 411.677C812.486 411.821 838.518 423.327 866.276 451.372C877.207 462.303 881.378 467.768 884.829 475.247C887.274 480.568 890.726 487.184 892.452 489.917C894.379 493.064 896.278 498.385 897.917 504.846Z" fill="#6807CF"/>
<path fill-rule="evenodd" clip-rule="evenodd" d="M359.539 568.196C376.328 592.171 434.458 633.823 472.406 645.044C518.279 658.609 587.405 660.336 679.897 656.156C766.077 652.261 877.439 609.231 885.968 606.044C946.203 583.541 988.401 586.899 1002.77 588.423C1054.38 593.898 1092.66 618.872 1105.56 652.899C1107.03 656.798 1107.96 661.403 1108.11 662.156C1115.54 698.952 1092.31 745.481 1006.45 759.564C995.342 761.385 982.115 762.218 979.991 762.352C947.147 764.422 916.417 761.664 900.568 760.005C900.027 759.949 897.098 759.621 897.096 759.619C896.888 759.415 896.68 759.21 896.472 759.005L897.086 758.381C920.666 755.248 960.94 749.126 998.448 734.044C1001.31 732.895 1040.04 718.757 1054.57 696.061C1062.67 683.412 1057.6 676.782 1056.5 675.201C1056.44 675.115 1056.39 675.039 1055.73 674.157L1055.72 674.162C1046.89 661.435 1021.07 652.141 985.406 657.389C970.846 659.532 947.275 664.381 914.644 682.241C888.624 696.484 860.366 709.234 855.562 711.402C791.611 740.257 741.065 754.86 723.718 760.028C655.604 780.321 608.2 785.752 597.768 787.339C538.289 796.383 497.033 794.764 478.312 794.054C412.814 791.57 368.605 777.343 347.322 770.155C284.795 749.036 228.899 704.313 207.141 681.184" fill="#F0CC00"/>
<path d="M359.539 568.196C376.328 592.171 434.458 633.823 472.406 645.044C518.279 658.609 587.405 660.336 679.897 656.156C766.077 652.261 877.439 609.231 885.968 606.044C946.203 583.541 988.401 586.899 1002.77 588.423C1054.38 593.898 1092.66 618.872 1105.56 652.899C1107.03 656.798 1107.96 661.403 1108.11 662.156C1115.54 698.952 1092.31 745.481 1006.45 759.564C995.342 761.385 982.115 762.218 979.991 762.352C947.147 764.422 916.417 761.664 900.568 760.005C900.027 759.949 897.098 759.621 897.096 759.619C896.888 759.415 896.68 759.21 896.472 759.005L897.086 758.381C920.666 755.248 960.94 749.126 998.448 734.044C1001.31 732.895 1040.04 718.757 1054.57 696.061C1062.67 683.412 1057.6 676.782 1056.5 675.201C1056.44 675.115 1056.39 675.039 1055.73 674.157L1055.72 674.162C1046.89 661.435 1021.07 652.141 985.406 657.389C970.846 659.532 947.275 664.381 914.644 682.241C888.624 696.484 860.366 709.234 855.562 711.402C791.611 740.257 741.065 754.86 723.718 760.028C655.604 780.321 608.2 785.752 597.768 787.339C538.289 796.383 497.033 794.764 478.312 794.054C412.814 791.57 368.605 777.343 347.322 770.155C284.795 749.036 228.899 704.313 207.141 681.184" stroke="black" stroke-width="5" stroke-miterlimit="2" stroke-linejoin="round"/>
<path fill-rule="evenodd" clip-rule="evenodd" d="M896.675 759.019L897.073 758.587C951.2 752.74 984.111 741.538 992.33 738.743C1015.5 730.865 1029.28 723.165 1036.57 718.616C1037.44 718.07 1042.98 713.765 1047.89 708.725C1065.93 690.226 1061.39 678.12 1059.79 674.02C1059.07 672.172 1058.08 670.359 1057.91 670.051C1057.67 669.61 1057.64 668.653 1056.18 666.316C1050.75 657.611 1037.44 648.444 1025.71 643.87C1025.23 643.682 1021.8 642.634 1015.78 641.813C997.913 639.373 974.997 639.254 974.947 639.253C972.128 639.192 969.765 639.066 962.225 639.872C931.008 643.215 898.748 655.118 888.366 659.041C887.103 659.518 877.431 663.95 876.484 664.384C855.905 673.814 822.539 686.553 819.946 687.603C812.867 690.467 799.62 696.348 786.187 701.334C739.682 718.596 693.322 727.439 685.57 728.955C653.384 735.252 626.432 738.439 608.695 740.145C604.337 740.563 589.619 741.255 578.085 741.543C522.481 742.933 469.148 738.165 418.692 722.105C408.654 718.91 366.962 708.402 319.423 675.997C295.987 660.021 277.15 643.69 259.993 625.949C254.96 620.745 248.883 614.113 247.697 612.587C247.429 612.24 244.529 608.508 244.368 608.244C242.419 605.045 240.144 602.024 238.522 598.648C236.943 595.364 235.711 591.894 234.813 588.362C233.93 584.882 233.4 581.297 233.205 577.712C233.011 574.15 233.165 570.552 233.652 567.019C234.139 563.484 234.962 559.979 236.111 556.603C237.268 553.204 238.747 549.895 240.538 546.784C242.356 543.625 244.48 540.618 246.888 537.882C246.9 537.869 255.119 530.216 255.127 530.211C258.325 528.262 261.346 525.988 264.722 524.365C268.007 522.785 271.476 521.554 275.009 520.656C278.489 519.772 282.074 519.243 285.659 519.048C289.221 518.854 292.818 519.008 296.352 519.495C299.886 519.982 303.39 520.805 306.768 521.954C310.166 523.111 313.475 524.589 316.587 526.381C319.745 528.199 322.752 530.323 325.488 532.731C331.276 537.825 330.939 538.155 335.669 544.245C336.607 545.451 340.724 552.205 348.122 562.026C365.482 585.072 380.514 597.674 383.737 600.436C408.037 621.249 431.284 632.635 445.906 638.981C445.943 638.997 450.995 640.947 457.752 643.159C505.525 658.806 557.254 661.818 603.856 661.332C607.322 661.296 662.209 663.838 729.771 653.642C763.894 648.493 782.973 642.717 790.098 640.753C801.011 637.747 801.021 637.793 807.412 635.84C851.964 622.226 856.101 619.825 869.866 615.032C873.302 613.836 888.96 607.397 910.248 601.325C936.571 593.816 955.257 591.532 966.706 590.735C972.363 590.34 980.769 590.74 981.99 590.798C998.956 591.605 1026.6 594.037 1040.75 598.85C1041.5 599.106 1054.02 603.416 1068.12 613.047C1078.15 619.892 1098.06 635.629 1103.68 658.353C1104.03 659.794 1104.31 664.113 1104.36 666.575C1104.77 684.815 1098.6 715.274 1055.73 733.605C1050.56 735.817 1047.64 736.695 1046.34 737.267C1034.07 742.682 1007.63 752.757 957.549 757.423C930.043 759.985 906.84 759.618 897.109 759.417C896.793 759.411 896.908 759.233 896.675 759.019Z" fill="#FEE32D"/>
<path fill-rule="evenodd" clip-rule="evenodd" d="M1416.82 470.136C1398.87 466.444 1383.36 456.925 1372.05 443.841C1371.99 443.767 1371.86 443.619 1371.86 443.619L1256.67 429.406C1256.67 429.406 1256.46 429.554 1256.35 429.628C1240.53 440.756 1220.69 446.283 1200 443.739C1155.71 438.291 1124.17 397.905 1129.62 353.607C1135.07 309.309 1175.45 277.767 1219.75 283.214L1443.06 310.678C1463.37 313.176 1481.01 323.027 1493.62 337.233C1457.73 395.562 1435.41 439.382 1416.82 470.136Z" fill="black" fill-opacity="0.15"/>
<path fill-rule="evenodd" clip-rule="evenodd" d="M1458.11 295.626C1502.39 301.072 1533.93 341.458 1528.49 385.757C1523.03 430.053 1482.65 461.596 1438.37 456.15C1417.66 453.604 1399.76 443.428 1387.09 428.787C1387.03 428.714 1386.9 428.567 1386.9 428.567L1271.72 414.353C1271.72 414.353 1271.5 414.502 1271.41 414.576C1255.58 425.703 1235.75 431.231 1215.05 428.687C1170.76 423.239 1139.22 382.853 1144.68 338.555C1150.12 294.255 1190.5 262.715 1234.8 268.162C1258.18 271.038 1436.53 292.972 1458.11 295.626Z" fill="#CBCFCC" stroke="black" stroke-width="4.65086" stroke-miterlimit="1.5" stroke-linecap="round" stroke-linejoin="round"/>
<path fill-rule="evenodd" clip-rule="evenodd" d="M1454.7 305.835C1493.24 310.361 1520.85 345.332 1516.32 383.877C1511.79 422.422 1476.83 450.039 1438.29 445.513C1399.75 440.987 1372.13 406.016 1376.66 367.471C1381.19 328.926 1416.16 301.307 1454.7 305.835Z" fill="#465D63"/>
<path d="M1472.08 336.198L1475.6 331.997L1473.39 327.509L1475.44 327.751L1476.86 330.758L1478.91 328.157L1480.95 328.398L1477.73 332.315L1480.19 337.151L1478.07 336.901L1476.49 333.658L1474.19 336.446L1472.08 336.198Z" fill="#C8D0D2"/>
<path d="M1384.6 392.145L1385.03 388.474L1382.43 383.049L1384.49 383.291L1386.14 386.983L1388.56 383.769L1390.59 384.007L1386.79 388.692L1386.36 392.352L1384.6 392.145Z" fill="#C8D0D2"/>
<path d="M1410.2 414.49L1413.68 414.899C1414.37 414.98 1414.88 415.07 1415.22 415.167C1415.55 415.264 1415.84 415.42 1416.09 415.633C1416.33 415.848 1416.53 416.116 1416.67 416.441C1416.81 416.766 1416.86 417.116 1416.82 417.493C1416.77 417.902 1416.61 418.263 1416.35 418.578C1416.09 418.894 1415.76 419.114 1415.37 419.241C1415.88 419.458 1416.26 419.769 1416.5 420.176C1416.74 420.582 1416.83 421.037 1416.77 421.541C1416.73 421.938 1416.59 422.313 1416.36 422.665C1416.13 423.019 1415.85 423.289 1415.5 423.475C1415.16 423.662 1414.75 423.753 1414.27 423.751C1413.98 423.747 1413.26 423.684 1412.14 423.56L1409.17 423.212L1410.2 414.49ZM1411.79 416.149L1411.55 418.165L1412.7 418.3C1413.39 418.381 1413.82 418.421 1413.99 418.421C1414.29 418.421 1414.54 418.344 1414.73 418.192C1414.93 418.04 1415.04 417.823 1415.07 417.542C1415.1 417.272 1415.06 417.044 1414.93 416.858C1414.8 416.672 1414.59 416.544 1414.3 416.474C1414.13 416.434 1413.63 416.365 1412.8 416.267L1411.79 416.149ZM1411.38 419.616L1411.11 421.949L1412.74 422.14C1413.37 422.215 1413.78 422.244 1413.95 422.229C1414.22 422.212 1414.44 422.121 1414.63 421.956C1414.82 421.79 1414.93 421.553 1414.96 421.244C1415 420.982 1414.96 420.753 1414.85 420.555C1414.75 420.357 1414.58 420.204 1414.35 420.092C1414.12 419.98 1413.6 419.878 1412.8 419.783L1411.38 419.616Z" fill="#C8D0D2"/>
<path d="M1509.84 369.79L1507.93 369.565L1507.4 367.494L1503.91 367.085L1502.96 368.981L1501.09 368.762L1505.51 360.44L1507.37 360.659L1509.84 369.79ZM1507 365.958L1506.18 362.582L1504.63 365.679L1507 365.958Z" fill="#C8D0D2"/>
<path fill-rule="evenodd" clip-rule="evenodd" d="M1491.82 394.353C1499.88 389.03 1502.11 378.162 1496.79 370.099C1491.47 362.036 1480.6 359.81 1472.54 365.134L1431.59 392.166C1423.53 397.489 1421.3 408.357 1426.62 416.42C1431.95 424.482 1442.81 426.709 1450.87 421.386L1491.82 394.353Z" fill="#D1D1CD"/>
<path fill-rule="evenodd" clip-rule="evenodd" d="M1451.13 401.337C1455.36 407.753 1453.59 416.398 1447.18 420.632C1440.76 424.866 1432.12 423.098 1427.89 416.682C1423.65 410.267 1425.42 401.621 1431.84 397.387C1438.25 393.153 1446.9 394.922 1451.13 401.337Z" fill="black" fill-opacity="0.5"/>
<path fill-rule="evenodd" clip-rule="evenodd" d="M1454.36 398.099C1458.59 404.515 1456.82 413.16 1450.41 417.395C1443.99 421.629 1435.35 419.86 1431.11 413.444C1426.88 407.03 1428.65 398.383 1435.06 394.149C1441.48 389.915 1450.12 391.685 1454.36 398.099Z" fill="#BE0003"/>
<path fill-rule="evenodd" clip-rule="evenodd" d="M1489.27 376.156C1493.5 382.571 1491.73 391.216 1485.32 395.452C1478.9 399.687 1470.26 397.916 1466.03 391.5C1461.79 385.086 1463.56 376.441 1469.98 372.205C1476.39 367.971 1485.04 369.74 1489.27 376.156Z" fill="black" fill-opacity="0.5"/>
<path fill-rule="evenodd" clip-rule="evenodd" d="M1492.51 372.921C1496.75 379.336 1494.98 387.981 1488.56 392.216C1482.15 396.452 1473.5 394.681 1469.27 388.265C1465.04 381.85 1466.81 373.206 1473.22 368.97C1479.63 364.735 1488.28 366.505 1492.51 372.921Z" fill="#BE0003"/>
<path fill-rule="evenodd" clip-rule="evenodd" d="M1459.16 361.577C1467.22 356.254 1469.45 345.386 1464.13 337.323C1458.81 329.26 1447.94 327.034 1439.88 332.358L1398.93 359.39C1390.87 364.713 1388.64 375.581 1393.96 383.644C1399.29 391.706 1410.15 393.933 1418.22 388.609L1459.16 361.577Z" fill="#D1D1CD"/>
<path fill-rule="evenodd" clip-rule="evenodd" d="M1418.47 368.56C1422.7 374.976 1420.93 383.621 1414.52 387.856C1408.1 392.092 1399.46 390.321 1395.22 383.906C1390.99 377.492 1392.76 368.845 1399.18 364.61C1405.59 360.376 1414.23 362.146 1418.47 368.56Z" fill="black" fill-opacity="0.5"/>
<path fill-rule="evenodd" clip-rule="evenodd" d="M1421.71 365.325C1425.95 371.741 1424.18 380.386 1417.76 384.621C1411.35 388.857 1402.7 387.086 1398.47 380.671C1394.24 374.256 1396.01 365.61 1402.42 361.374C1408.83 357.14 1417.48 358.911 1421.71 365.325Z" fill="#BE0003"/>
<path fill-rule="evenodd" clip-rule="evenodd" d="M1456.61 343.381C1460.84 349.795 1459.07 358.44 1452.66 362.676C1446.25 366.91 1437.6 365.14 1433.37 358.726C1429.13 352.31 1430.9 343.665 1437.32 339.43C1443.73 335.195 1452.37 336.965 1456.61 343.381Z" fill="black" fill-opacity="0.5"/>
<path fill-rule="evenodd" clip-rule="evenodd" d="M1459.85 340.145C1464.09 346.56 1462.32 355.205 1455.9 359.441C1449.49 363.675 1440.84 361.905 1436.61 355.49C1432.38 349.074 1434.15 340.429 1440.56 336.195C1446.97 331.96 1455.62 333.729 1459.85 340.145Z" fill="#BE0003"/>
<path fill-rule="evenodd" clip-rule="evenodd" d="M1312.98 363.313C1314.87 366.465 1313.85 370.559 1310.7 372.453L1290.87 384.358C1287.72 386.249 1283.63 385.227 1281.73 382.075C1279.84 378.924 1280.86 374.829 1284.02 372.936L1303.84 361.032C1306.99 359.139 1311.09 360.162 1312.98 363.313Z" fill="black" fill-opacity="0.5"/>
<path fill-rule="evenodd" clip-rule="evenodd" d="M1354.84 368.453C1356.74 371.603 1355.72 375.699 1352.57 377.593L1332.75 389.513C1329.6 391.407 1325.51 390.388 1323.61 387.238C1321.72 384.088 1322.74 379.991 1325.89 378.096L1345.7 366.178C1348.85 364.282 1352.95 365.303 1354.84 368.453Z" fill="black" fill-opacity="0.5"/>
<path fill-rule="evenodd" clip-rule="evenodd" d="M1314.28 361.3C1312.98 359.131 1310.16 358.426 1307.99 359.729L1288.16 371.634C1285.99 372.938 1285.29 375.758 1286.59 377.928C1287.89 380.099 1290.71 380.802 1292.88 379.5L1312.71 367.594C1314.88 366.29 1315.58 363.471 1314.28 361.3Z" fill="#334249" stroke="black" stroke-width="4.11503" stroke-miterlimit="1.5" stroke-linecap="round" stroke-linejoin="round"/>
<path fill-rule="evenodd" clip-rule="evenodd" d="M1356.15 366.441C1354.84 364.271 1352.02 363.568 1349.85 364.874L1330.04 376.793C1327.87 378.098 1327.16 380.919 1328.47 383.088C1329.77 385.257 1332.59 385.959 1334.76 384.655L1354.58 372.735C1356.75 371.43 1357.45 368.611 1356.15 366.441Z" fill="#324148" stroke="black" stroke-width="4.11503" stroke-miterlimit="1.5" stroke-linecap="round" stroke-linejoin="round"/>
<path fill-rule="evenodd" clip-rule="evenodd" d="M1387.34 306.89C1387.96 301.811 1384.34 297.182 1379.27 296.557L1302.07 287.063C1296.99 286.439 1292.36 290.054 1291.74 295.132L1289.47 313.535C1288.85 318.613 1292.46 323.244 1297.54 323.868L1374.74 333.362C1379.82 333.987 1384.45 330.37 1385.07 325.292L1387.34 306.89Z" fill="#646464"/>
<path fill-rule="evenodd" clip-rule="evenodd" d="M1208.87 365.263L1208 378.698C1207.56 385.576 1206.84 384.754 1213.72 385.2L1225.93 385.989C1232.79 386.432 1231.97 387.154 1232.42 380.277L1233.3 366.844L1246.72 367.711C1253.6 368.155 1252.78 368.878 1253.22 362L1254.01 349.788C1254.45 342.908 1255.17 343.732 1248.31 343.288L1234.88 342.419L1235.74 328.986C1236.19 322.107 1236.91 322.929 1230.02 322.485L1217.82 321.696C1210.93 321.25 1211.77 320.528 1211.31 327.407L1210.44 340.84L1197.01 339.972C1190.15 339.527 1190.97 338.805 1190.52 345.682L1189.73 357.895C1189.27 364.773 1188.55 363.951 1195.44 364.395L1208.87 365.263Z" fill="black" fill-opacity="0.15"/>
<path fill-rule="evenodd" clip-rule="evenodd" d="M1214.04 360.091L1213.17 373.526C1212.73 380.404 1212.01 379.582 1218.89 380.028L1231.1 380.817C1237.96 381.26 1237.14 381.982 1237.59 375.105L1238.47 361.673L1251.89 362.54C1258.77 362.984 1257.95 363.706 1258.39 356.828L1259.18 344.616C1259.63 337.736 1260.35 338.56 1253.48 338.116L1240.05 337.247L1240.91 323.814C1241.36 316.935 1242.08 317.757 1235.2 317.313L1222.99 316.524C1216.11 316.078 1216.94 315.356 1216.48 322.235L1215.62 335.668L1202.18 334.8C1195.32 334.355 1196.14 333.633 1195.69 340.51L1194.91 352.723C1194.44 359.601 1193.72 358.779 1200.61 359.223L1214.04 360.091Z" fill="#202C33" stroke="black" stroke-width="4.33495" stroke-miterlimit="1.5" stroke-linecap="round" stroke-linejoin="round"/>
<path fill-rule="evenodd" clip-rule="evenodd" d="M1206.54 346.722L1248.52 349.437C1250.64 349.574 1253.4 350.958 1253.4 350.958C1253.4 350.958 1253.5 350.034 1253.53 349.495L1253.66 347.484C1254.04 341.589 1255.2 343.241 1248.95 342.836L1234.74 341.946L1235.73 326.66C1236.11 320.765 1237.29 322.418 1231.02 322.012L1228.21 321.875C1221.94 321.471 1223.3 319.981 1222.92 325.876L1221.94 341.162L1206.97 340.123C1200.71 339.718 1202.08 338.228 1201.7 344.125L1201.57 346.136C1201.53 346.737 1201.47 347.369 1201.47 347.369C1201.47 347.369 1204.47 346.589 1206.54 346.722Z" fill="#111618"/>
<path fill-rule="evenodd" clip-rule="evenodd" d="M1220.39 399.519C1221.51 399.717 1233.27 401.58 1247.41 394.82C1256.06 390.69 1263.42 381.556 1263.42 381.556C1263.42 381.556 1258.25 390.674 1247.87 395.695C1234.99 401.94 1221.6 399.734 1220.39 399.519Z" fill="#808080"/>
<path fill-rule="evenodd" clip-rule="evenodd" d="M1271.57 335.306C1270.87 333.285 1269.84 330.993 1268.36 328.804C1264.27 322.775 1256.85 316.98 1250.13 312.93C1244.62 309.597 1238.43 305.824 1230.57 304.211C1223.46 302.755 1212.51 303.774 1212.51 303.774C1212.51 303.774 1235.4 297.071 1253.47 309.896C1264.57 317.772 1269.48 328.609 1271.57 335.306C1272.76 338.757 1273.02 341.414 1273.02 341.414C1273.02 341.414 1272.71 338.985 1271.57 335.306Z" fill="#3B3B3B"/>
<path fill-rule="evenodd" clip-rule="evenodd" d="M1255.09 414.091C1262.18 414.482 1290.94 425.217 1309.15 427.02C1341.74 430.245 1349.93 427.511 1355.25 429.061C1380.02 436.289 1382.13 458.28 1378.01 471.196C1372.87 487.283 1357.38 513.516 1296.15 505.608C1226.08 496.56 1220.51 457.016 1224.59 439.741C1230.15 416.12 1246.85 413.636 1255.09 414.091Z" fill="black" fill-opacity="0.15"/>
<path fill-rule="evenodd" clip-rule="evenodd" d="M1544.18 259.658C1544.18 259.658 1533.36 273.139 1529.39 278.17C1523.65 285.444 1512.92 286.659 1504.78 291.084C1495.92 295.899 1484.63 301.3 1476.25 307.059C1468.39 312.46 1461.6 320.607 1454.47 325.636C1447.97 330.238 1440.72 333.72 1433.57 337.235C1425.4 341.249 1415.27 346.793 1405.47 349.72C1395.66 352.647 1385.11 354.392 1374.73 354.797C1361.98 355.295 1343.48 354.496 1328.94 352.708C1314.94 350.985 1299.17 347.571 1287.5 344.069C1277.56 341.085 1267.72 336.913 1258.92 331.697C1250.11 326.482 1241.63 318.649 1234.68 312.775C1228.59 307.632 1222.4 302.498 1217.21 296.457C1211.52 289.854 1206.91 280.304 1200.59 273.159C1193.85 265.54 1184.21 257.564 1176.78 250.747C1169.96 244.482 1159.84 240.702 1156.03 232.254C1152.59 224.618 1151.69 212.798 1152.61 202.591C1153.14 199.203 1153.96 195.804 1155.07 192.405C1160.17 197.734 1164.82 202.383 1171.09 204.475C1192.65 53.0257 1404.89 10.7025 1497.57 138.644C1516.43 164.67 1528.86 191.199 1536.27 212.816C1544.79 237.644 1546.7 255.992 1544.18 259.658Z" fill="black" fill-opacity="0.15"/>
<path fill-rule="evenodd" clip-rule="evenodd" d="M1382.64 59.6291C1416.15 63.7721 1418.77 45.7624 1450.17 43.3808C1467.3 42.0825 1488.13 47.659 1493.65 49.8286C1521.9 60.9347 1528.38 91.1651 1532.51 108.17C1536.95 126.328 1536.32 134.229 1542.64 155.467C1547.61 172.149 1551.27 184.127 1553.43 195.718C1555.75 208.106 1558.02 217.581 1556.52 229.794C1555.13 241.087 1551.41 254.554 1545.46 262.087C1539.72 269.363 1529 270.578 1520.85 275.003C1512 279.818 1500.71 285.22 1492.33 290.978C1484.47 296.38 1477.67 304.526 1470.57 309.556C1464.06 314.159 1456.81 317.639 1449.66 321.155C1441.49 325.169 1431.37 330.712 1421.55 333.639C1411.74 336.566 1401.2 338.312 1390.83 338.717C1378.07 339.214 1359.57 338.415 1345.02 336.626C1331.02 334.903 1315.26 331.49 1303.59 327.989C1293.65 325.005 1283.8 320.832 1275 315.615C1266.2 310.4 1257.72 302.567 1250.76 296.694C1244.68 291.551 1238.48 286.415 1233.3 280.377C1227.6 273.772 1222.99 264.223 1216.67 257.078C1209.94 249.459 1200.29 241.483 1192.87 234.666C1186.05 228.402 1175.92 224.621 1172.12 216.174C1168.17 207.423 1167.57 193.178 1169.22 182.164C1170.87 171.149 1176.7 160.291 1182.02 150.084C1187.82 138.99 1197.44 127.555 1203.97 115.588C1211.2 102.308 1216.98 85.2061 1225.47 70.4098C1234.17 55.2219 1250.43 30.6893 1272.06 24.0301C1286.71 19.5229 1311.6 24.0326 1322.81 27.7192C1352.74 37.5635 1350.16 55.6123 1382.64 59.6291Z" fill="#FEE32D" stroke="black" stroke-width="5.08962" stroke-miterlimit="1.5" stroke-linecap="round" stroke-linejoin="round"/>
<path fill-rule="evenodd" clip-rule="evenodd" d="M1450.09 47.7621C1460.11 43.9982 1480.23 46.6223 1490.86 50.9088C1501.02 55.0118 1508.31 63.9393 1513.85 73.488C1520.9 85.6435 1523.28 82.656 1534.78 137.185C1537.39 149.478 1540.33 162.17 1542.97 170.593C1544.83 176.511 1546.3 181.393 1547.82 187.377C1549.81 195.116 1551.86 207.659 1552.06 216.677C1552.24 225.041 1552.22 233.795 1549.01 241.486C1545.79 249.184 1543.79 259.231 1535.52 263.216C1522.13 269.662 1490.25 286.36 1490.25 286.36C1488.43 282.291 1498.67 266.425 1489.61 245.186C1479.09 220.491 1465.81 213.322 1465.81 213.322C1465.81 213.322 1497.01 201.327 1507.26 159.019C1511.63 140.996 1509.12 107.59 1499.03 91.6493C1482.13 64.8977 1467.77 63.6068 1452.41 60.2496C1445.36 58.7094 1447.1 48.8897 1450.09 47.7621Z" fill="#FFDF26"/>
<path fill-rule="evenodd" clip-rule="evenodd" d="M1391.2 65.2197C1391.2 65.2197 1404.93 63.878 1410.72 61.3131C1420.88 56.8167 1435.66 47.9141 1446.5 48.0254C1451.81 48.0805 1447.26 53.6288 1445.46 55.9323C1442.73 59.3856 1444.04 55.5423 1424.77 69.0286C1406.86 81.5725 1393 109.735 1389.62 135.871C1388.04 148.001 1394.43 176.769 1396.9 177.499L1372.91 171.015C1372.91 171.015 1374.47 136.955 1377.36 120.199C1380.41 102.566 1391.2 65.2197 1391.2 65.2197Z" fill="#F0CC00"/>
<path fill-rule="evenodd" clip-rule="evenodd" d="M1218.61 255.227C1218.61 255.227 1195.45 232.331 1187.34 227.088C1181.38 223.237 1177.47 220.226 1175.51 216.724C1169.82 206.599 1170.91 193.437 1171.54 185.954C1172.7 172.364 1179.92 159.905 1185.23 149.772C1190.28 140.197 1196.44 132.793 1201.87 124.492C1202.81 123.025 1212.9 103.569 1213.62 101.943C1225.28 75.7634 1223.89 78.6316 1233.04 63.169C1244.41 43.9904 1259.77 30.8844 1271.3 26.9165C1282.5 23.0638 1302.94 26.7099 1297.63 32.201C1295.26 34.6595 1289.48 37.3575 1278.83 42.4332C1269.09 47.0682 1258.06 55.6133 1254.96 59.4597C1248.85 66.9975 1234.47 89.3888 1230.93 113.261C1229.57 122.54 1230.37 141.308 1231.32 147.723C1232.84 157.929 1233.93 177.882 1233.39 182.244C1232.91 186.146 1228.95 188.731 1226.88 192.073C1224.67 195.639 1221.59 199.422 1220.14 203.644C1218.31 209.028 1216.18 217.321 1215.82 224.368C1215.45 232.292 1218.61 255.227 1218.61 255.227Z" fill="#EFCC00"/>
<path fill-rule="evenodd" clip-rule="evenodd" d="M1492.96 62.1518C1495.16 58.8032 1504.95 63.9613 1507.55 67.5837C1510.58 71.7905 1512.39 83.1158 1510.97 83.8108C1508.95 84.8024 1505.33 76.0974 1502.4 72.0046C1499.37 67.7978 1492.1 63.4716 1492.96 62.1518Z" fill="white"/>
<path fill-rule="evenodd" clip-rule="evenodd" d="M1548.74 220.093C1546.54 219.307 1545.98 224.986 1544.35 230.172C1542.49 236.15 1541.42 237.796 1538.73 240.866C1530.47 250.364 1530.13 256.822 1531.91 256.975C1539.49 257.623 1544.37 247.028 1547.14 239.741C1548.83 235.362 1549.97 220.539 1548.74 220.093Z" fill="white"/>
<path fill-rule="evenodd" clip-rule="evenodd" d="M1353.07 68.0926C1354.08 67.0361 1359.58 70.3654 1361.37 72.6505C1363.16 74.9338 1364.81 80.7447 1363.79 81.8012C1362.77 82.8578 1356.4 80.2691 1354.63 77.984C1352.84 75.699 1352.05 69.1492 1353.07 68.0926Z" fill="white"/>
<path fill-rule="evenodd" clip-rule="evenodd" d="M1459.03 67.3574C1488.52 70.9837 1508.41 106.893 1503.41 147.494C1498.42 188.097 1470.42 218.116 1440.95 214.492C1411.46 210.864 1391.59 174.959 1396.58 134.355C1401.58 93.7541 1429.56 63.7333 1459.03 67.3574Z" fill="white" stroke="black" stroke-width="4.86147" stroke-miterlimit="1.5" stroke-linecap="round" stroke-linejoin="round"/>
<path fill-rule="evenodd" clip-rule="evenodd" d="M1427.52 129.087C1438.41 130.426 1446.19 140.369 1444.85 151.272C1443.51 162.176 1433.56 169.941 1422.65 168.599C1411.76 167.259 1403.98 157.317 1405.32 146.411C1406.68 135.51 1416.61 127.745 1427.52 129.087Z" fill="black"/>
<path fill-rule="evenodd" clip-rule="evenodd" d="M1301.42 47.9737C1330.9 51.5996 1350.78 87.5067 1345.78 128.108C1340.8 168.711 1312.8 198.73 1283.32 195.106C1253.85 191.482 1233.96 155.573 1238.95 114.969C1243.95 74.3683 1271.93 44.3474 1301.42 47.9737Z" fill="white" stroke="black" stroke-width="4.86147" stroke-miterlimit="1.5" stroke-linecap="round" stroke-linejoin="round"/>
<path fill-rule="evenodd" clip-rule="evenodd" d="M1317.78 115.589C1328.67 116.929 1336.45 126.871 1335.11 137.777C1333.77 148.68 1323.82 156.443 1312.91 155.101C1302.02 153.762 1294.24 143.819 1295.58 132.916C1296.92 122.012 1306.87 114.248 1317.78 115.589Z" fill="black"/>
<path fill-rule="evenodd" clip-rule="evenodd" d="M1268.09 401.09C1275.18 401.481 1303.94 412.216 1322.15 414.019C1354.74 417.245 1362.93 414.511 1368.25 416.06C1393.02 423.288 1395.13 445.28 1391.01 458.195C1385.87 474.283 1370.38 500.515 1309.15 492.607C1239.08 483.559 1233.51 444.016 1237.59 426.74C1243.15 403.119 1259.85 400.635 1268.09 401.09Z" fill="#F0CC00" stroke="black" stroke-width="4.95282" stroke-miterlimit="1.5" stroke-linecap="round" stroke-linejoin="round"/>
<path fill-rule="evenodd" clip-rule="evenodd" d="M1297.04 419.625C1305.97 420.153 1313.46 421.665 1324.34 421.804C1340.85 422.011 1351.26 418.402 1362.96 418.12C1374.66 417.837 1383.74 426.26 1387.91 435.286C1392.65 445.515 1390.32 453.384 1388.43 458.965C1381.16 480.395 1360.68 491.035 1314.19 484.824C1295.86 482.375 1286.63 479.982 1274.33 469.545C1265.05 461.669 1259.2 442.396 1265.94 430.429C1273.75 416.582 1288.59 419.125 1297.04 419.625Z" fill="#FEE32D"/>
<path fill-rule="evenodd" clip-rule="evenodd" d="M1370.6 429.247C1372.29 429.451 1376.99 432.349 1378.41 435.324C1380 438.652 1380.41 446.964 1380.13 449.211C1380 450.333 1377.46 449.691 1376.77 448.801C1375.78 447.541 1375.48 443.845 1374.22 441.652C1372.81 439.201 1368.9 436.161 1368.3 434.094C1367.8 432.376 1368.92 429.041 1370.6 429.247Z" fill="white"/>
<path fill-rule="evenodd" clip-rule="evenodd" d="M1436.23 327.152L1459.04 317.355L1441.47 401.597L1436.23 327.152Z" fill="white" stroke="black" stroke-width="5.17243" stroke-miterlimit="1.5" stroke-linecap="round" stroke-linejoin="round"/>
<path fill-rule="evenodd" clip-rule="evenodd" d="M1255.38 304.91L1235.63 289.881L1232.26 375.868L1255.38 304.91Z" fill="white" stroke="black" stroke-width="5.17243" stroke-miterlimit="1.5" stroke-linecap="round" stroke-linejoin="round"/>
<path fill-rule="evenodd" clip-rule="evenodd" d="M1364.2 174.287C1439.05 183.546 1495.3 227.613 1489.73 272.627C1484.16 317.641 1418.86 346.667 1344.01 337.408C1269.16 328.145 1212.91 284.078 1218.48 239.065C1224.05 194.05 1289.34 165.024 1364.2 174.287Z" fill="#FEE32D" stroke="black" stroke-width="4.78355" stroke-miterlimit="1.5" stroke-linecap="round" stroke-linejoin="round"/>
<path fill-rule="evenodd" clip-rule="evenodd" d="M1303.61 180.26C1303.61 180.26 1248.52 192.956 1242.45 242.033C1236.37 291.109 1285.49 314.857 1285.49 314.857C1285.49 314.857 1219.07 288.968 1225.15 239.892C1231.22 190.815 1303.61 180.26 1303.61 180.26Z" fill="#E8C500"/>
<path fill-rule="evenodd" clip-rule="evenodd" d="M1406.64 245.89C1422.4 247.842 1434.35 256.281 1433.3 264.725C1432.26 273.17 1418.61 278.443 1402.85 276.491C1387.09 274.541 1375.14 266.102 1376.19 257.659C1377.23 249.213 1390.88 243.941 1406.64 245.89Z" fill="#F7DB27"/>
<path fill-rule="evenodd" clip-rule="evenodd" d="M1376.63 255.907C1379.39 248.634 1392.09 244.318 1406.59 246.113C1422.35 248.063 1434.3 256.502 1433.26 264.946C1432.66 269.767 1427.95 273.554 1421.1 275.553C1421.34 274.918 1421.5 274.26 1421.58 273.582C1422.63 265.138 1410.68 256.699 1394.92 254.748C1388.16 253.911 1381.79 254.405 1376.63 255.907Z" fill="#CDB100"/>
<path fill-rule="evenodd" clip-rule="evenodd" d="M1300.27 232.731C1316.03 234.681 1327.98 243.12 1326.93 251.563C1325.89 260.009 1312.24 265.281 1296.48 263.332C1280.72 261.379 1268.77 252.941 1269.82 244.497C1270.86 236.052 1284.51 230.779 1300.27 232.731Z" fill="#F7DB27"/>
<path fill-rule="evenodd" clip-rule="evenodd" d="M1270.26 242.745C1273.02 235.471 1285.72 231.156 1300.22 232.95C1315.98 234.9 1327.93 243.34 1326.89 251.784C1326.29 256.605 1321.58 260.391 1314.73 262.392C1314.97 261.756 1315.13 261.098 1315.21 260.419C1316.26 251.976 1304.31 243.536 1288.55 241.586C1281.79 240.749 1275.42 241.243 1270.26 242.745Z" fill="#CDB100"/>
<path fill-rule="evenodd" clip-rule="evenodd" d="M1452.67 218.053C1454.81 215.564 1465.42 226.603 1466.37 228.239C1467.53 230.262 1477.65 239.409 1472.06 243.145C1466.32 246.972 1464.6 235.927 1461.18 231.643C1458.07 227.727 1448.78 222.617 1452.67 218.053Z" fill="white"/>
</g>
<defs>
<clipPath id="clip0_221_2">
<rect width="1560" height="800" fill="white"/>
</clipPath>
</defs>
</svg>
